<svg width="32" height="32" viewBox="0 0 32 32" fill="none" xmlns="http://www.w3.org/2000/svg">
  <!-- Background circle -->
  <rect width="32" height="32" rx="8" fill="#071114"/>

  <!-- Magnifying glass handle -->
  <line x1="20.5" y1="20.5" x2="29" y2="29" stroke="#0ea5a0" stroke-width="3.5" stroke-linecap="round"/>

  <!-- Lens ring (dashed arc) -->
  <circle cx="13.5" cy="13.5" r="9" stroke="#0ea5a0" stroke-width="2.5" stroke-linecap="round" stroke-dasharray="7 3" stroke-dashoffset="1.5" fill="none"/>

  <!-- Inner subtle ring -->
  <circle cx="13.5" cy="13.5" r="6" stroke="#0ea5a0" stroke-width="0.75" stroke-opacity="0.3" fill="none"/>

  <!-- Large sparkle star (top-left) -->
  <path d="M10.5 10.5 L11.3 12.7 L13.5 13.5 L11.3 14.3 L10.5 16.5 L9.7 14.3 L7.5 13.5 L9.7 12.7 Z" fill="white"/>

  <!-- Medium sparkle star (right) -->
  <path d="M15.5 11 L16.1 12.4 L17.5 13 L16.1 13.6 L15.5 15 L14.9 13.6 L13.5 13 L14.9 12.4 Z" fill="white" opacity="0.9"/>

  <!-- Small sparkle star (bottom) -->
  <path d="M11.5 16 L12 17 L13 17.5 L12 18 L11.5 19 L11 18 L10 17.5 L11 17 Z" fill="white" opacity="0.75"/>
</svg>
